<svg width="27" height="33" viewBox="0 0 27 33" fill="none" xmlns="http://www.w3.org/2000/svg">
<path d="M22.6957 17.3395C22.7276 14.8587 24.0587 12.5113 26.1704 11.2119C24.8382 9.30766 22.607 8.10031 20.2855 8.02761C17.8096 7.76749 15.4092 9.51053 14.1475 9.51053C12.8614 9.51053 10.9187 8.05344 8.82687 8.09652C6.10021 8.18469 3.55828 9.73631 2.2317 12.1223C-0.619916 17.0639 1.50713 24.3263 4.23875 28.3207C5.60543 30.2767 7.20269 32.4615 9.29267 32.384C11.3378 32.2991 12.1017 31.0787 14.5704 31.0787C17.0162 31.0787 17.7328 32.384 19.8652 32.3348C22.0598 32.2991 23.4424 30.3701 24.7612 28.3957C25.7431 27.002 26.4987 25.4617 27 23.8317C24.421 22.74 22.6987 20.1422 22.6957 17.3395Z" fill="#B2B2B2"/>
<path d="M18.668 5.4007C19.8645 3.96297 20.454 2.11501 20.3113 0.249268C18.4832 0.441446 16.7945 1.31594 15.5818 2.69851C14.3959 4.04935 13.7788 5.86479 13.8955 7.65923C15.7242 7.67807 17.522 6.82728 18.668 5.4007Z" fill="#B2B2B2"/>
</svg>
