<svg width="27" height="31" viewBox="0 0 27 31" fill="none" xmlns="http://www.w3.org/2000/svg">
<path d="M0.588847 29.8697L14.4883 15.4402L0.600491 1.03662C0.22955 1.26087 0 1.78009 0 2.45974V28.4603C0.0049749 29.14 0.226224 29.6213 0.588847 29.8697Z" fill="#B2B2B2"/>
<path d="M14.986 15.0421L19.1263 10.7435L2.26592 1.14575C1.98201 0.974496 1.65953 0.884041 1.33109 0.883545L14.9844 15.0404L14.986 15.0421Z" fill="#B2B2B2"/>
<path d="M14.9866 15.8413L1.29004 30.0602C1.63381 30.0662 1.97242 29.973 2.26812 29.7911L19.1617 20.1675L14.9866 15.8413Z" fill="#B2B2B2"/>
<path d="M25.2344 14.2262L19.6237 11.0264L15.3704 15.4423L19.6553 19.8859L25.2327 16.6947C26.4187 16.0168 26.4187 14.9007 25.2344 14.2262Z" fill="#B2B2B2"/>
</svg>
